<svg width="183" height="15" viewBox="0 0 183 15" fill="none" xmlns="http://www.w3.org/2000/svg">
  <path
    d="M11.4161 5.94889L10.2831 4.11838H6.15701L8.46589 0.203125H11.7154L20.1813 14.9997H16.889L13.3402 9.30482H6.88388L3.27091 14.9997H0L5.21636 5.94889H11.4161ZM39.46 8.89804V0.203125H42.6454V11.3133C42.6454 12.3302 42.2535 13.2031 41.4696 13.9319C40.6715 14.6438 39.7166 14.9997 38.6049 14.9997H26.5046C25.3786 14.9997 24.4239 14.6438 23.6399 13.9319C22.856 13.2031 22.4641 12.3302 22.4641 11.3133V0.203125H25.6709V8.94889C25.6709 9.22008 25.735 9.48279 25.8633 9.73702C26.0059 9.9743 26.1983 10.1862 26.4405 10.3726C26.6827 10.559 26.9679 10.7116 27.2956 10.8302C27.6234 10.9319 27.9798 10.9828 28.3646 10.9828H36.7877C37.4718 10.9828 38.0847 10.7794 38.6263 10.3726C39.1821 9.94888 39.46 9.45736 39.46 8.89804ZM56.5581 14.9997H53.3513V4.11838H44.9282V0.203125H65.1095V4.11838H56.5581V14.9997ZM67.3923 11.3133V3.88957C67.3923 2.87262 67.7844 2.00821 68.5681 1.29635C69.3521 0.567532 70.3071 0.203125 71.4329 0.203125H83.5331C84.6448 0.203125 85.5998 0.576005 86.3978 1.32177C87.1818 2.03363 87.5736 2.89804 87.5736 3.91499V11.3133C87.5736 12.3302 87.1818 13.2031 86.3978 13.9319C85.5998 14.6438 84.6448 14.9997 83.5331 14.9997H71.4329C70.3071 14.9997 69.3521 14.6438 68.5681 13.9319C67.7844 13.2031 67.3923 12.3302 67.3923 11.3133ZM84.3882 8.89804V6.05058C84.2886 5.54211 83.9893 5.09295 83.4903 4.70313C83.0059 4.3133 82.3786 4.11838 81.609 4.11838H73.3142C72.5589 4.11838 71.9246 4.3133 71.4115 4.70313C70.8984 5.07602 70.6277 5.54211 70.5991 6.10143V8.94889C70.5991 9.22008 70.6632 9.48279 70.7915 9.73702C70.9341 9.9743 71.1265 10.1862 71.3687 10.3726C71.6112 10.559 71.8961 10.7116 72.2239 10.8302C72.5518 10.9319 72.908 10.9828 73.2928 10.9828H81.7159C82.4 10.9828 83.013 10.7794 83.5545 10.3726C84.1103 9.94888 84.3882 9.45736 84.3882 8.89804ZM93.0634 14.9997H89.8564V0.203125H93.0634V14.9997ZM102.47 9.30482H94.5599V5.89804H102.47L106.532 0.203125H110.038L104.864 7.52516L110.038 14.9997H106.532L102.47 9.30482ZM112.321 11.3133V3.88957C112.321 2.87262 112.713 2.00821 113.497 1.29635C114.28 0.567532 115.235 0.203125 116.361 0.203125H128.462C129.573 0.203125 130.528 0.576005 131.326 1.32177C132.11 2.03363 132.502 2.89804 132.502 3.91499V11.3133C132.502 12.3302 132.11 13.2031 131.326 13.9319C130.528 14.6438 129.573 14.9997 128.462 14.9997H116.361C115.235 14.9997 114.28 14.6438 113.497 13.9319C112.713 13.2031 112.321 12.3302 112.321 11.3133ZM129.317 8.89804V6.05058C129.217 5.54211 128.918 5.09295 128.419 4.70313C127.934 4.3133 127.307 4.11838 126.537 4.11838H118.243C117.487 4.11838 116.853 4.3133 116.34 4.70313C115.827 5.07602 115.556 5.54211 115.528 6.10143V8.94889C115.528 9.22008 115.592 9.48279 115.72 9.73702C115.862 9.9743 116.055 10.1862 116.297 10.3726C116.539 10.559 116.824 10.7116 117.152 10.8302C117.48 10.9319 117.836 10.9828 118.221 10.9828H126.644C127.328 10.9828 127.941 10.7794 128.483 10.3726C129.039 9.94888 129.317 9.45736 129.317 8.89804ZM137.992 5.89804H134.785V14.9997H137.992V5.89804ZM151.759 14.9997H154.966V0.203125H150.391L144.961 10.4235L139.189 0.203125H134.785V4.11838H138.034L143.849 14.9997H145.987L151.759 4.11838V14.9997ZM160.456 0.203125V4.11838H157.249V0.203125H160.456ZM160.456 14.9997H157.249V5.7455H160.456V14.9997ZM162.782 4.88109V5.89804C162.81 7.06753 163.173 7.9404 163.872 8.51668C164.57 9.07601 165.546 9.37263 166.801 9.40652H179.628V11.0845H162.782V14.9997H178.901C179.471 14.9997 180.005 14.9235 180.504 14.7709C181.003 14.6014 181.431 14.3557 181.787 14.0336C182.157 13.6947 182.442 13.2879 182.642 12.8133C182.856 12.3218 182.963 11.7455 182.963 11.0845V9.40652C182.963 8.11837 182.628 7.21161 181.958 6.68618C181.302 6.16074 180.283 5.89804 178.901 5.89804H165.988V4.11838H182.963V0.203125H166.822C165.696 0.203125 164.741 0.567532 163.957 1.29635C163.173 2.00821 162.782 2.87262 162.782 3.88957V4.88109Z"
    fill="white" />
</svg>